<?xml version="1.0" encoding="utf-8"?>
<!-- Generator: Adobe Illustrator 24.2.3, SVG Export Plug-In . SVG Version: 6.00 Build 0)  -->
<svg version="1.1" id="Layer_1" xmlns="http://www.w3.org/2000/svg" xmlns:xlink="http://www.w3.org/1999/xlink" x="0px" y="0px"
	 viewBox="0 0 512 512" style="enable-background:new 0 0 512 512;" xml:space="preserve">
<style type="text/css">
	.st0{fill:#FFFFFF;}
</style>
<path class="st0" d="M492,512c-11,0-20-9-20-20V20c0-11,9-20,20-20s20,9,20,20v472C512,503,503,512,492,512z M433,492V101
	c0-11-9-20-20-20s-20,9-20,20v391c0,11,9,20,20,20S433,503,433,492z M354,492V181c0-11-9-20-20-20s-20,9-20,20v311c0,11,9,20,20,20
	S354,503,354,492z M275,492V261c0-11-9-20-20-20s-20,9-20,20v231c0,11,9,20,20,20S275,503,275,492z M196,492V341c0-11-9-20-20-20
	s-20,9-20,20v151c0,11,9,20,20,20S196,503,196,492z M117,492v-81c0-11-9-20-20-20s-20,9-20,20v81c0,11,9,20,20,20S117,503,117,492z
	 M40,492c0-11-9-20-20-20s-20,9-20,20s9,20,20,20S40,503,40,492z"/>
</svg>
